0
SECTION
2
HEADER
9
$INSUNITS
70
4
9
$ACADVER
1
AC1014
9
$HANDSEED
5
FFFF
0
ENDSEC
0
SECTION
2
TABLES
0
TABLE
2
VPORT
5
8
100
AcDbSymbolTable
0
ENDTAB
0
TABLE
2
LTYPE
5
5
100
AcDbSymbolTable
0
LTYPE
5
14
100
AcDbSymbolTableRecord
100
AcDbLinetypeTableRecord
2
BYBLOCK
70
0
0
LTYPE
5
15
100
AcDbSymbolTableRecord
100
AcDbLinetypeTableRecord
2
BYLAYER
70
0
0
ENDTAB
0
TABLE
2
LAYER
5
2
100
AcDbSymbolTable
70
2
0
LAYER
5
50
100
AcDbSymbolTableRecord
100
AcDbLayerTableRecord
2
0
70
0
6
CONTINUOUS
0
ENDTAB
0
TABLE
2
STYLE
5
3
100
AcDbSymbolTable
70
1
0
STYLE
5
11
100
AcDbSymbolTableRecord
100
AcDbTextStyleTableRecord
2
STANDARD
70
0
0
ENDTAB
0
TABLE
2
VIEW
5
6
100
AcDbSymbolTable
70
0
0
ENDTAB
0
TABLE
2
UCS
5
7
100
AcDbSymbolTable
70
0
0
ENDTAB
0
TABLE
2
APPID
5
9
100
AcDbSymbolTable
70
2
0
APPID
5
12
100
AcDbSymbolTableRecord
100
AcDbRegAppTableRecord
2
ACAD
70
0
0
ENDTAB
0
TABLE
2
DIMSTYLE
5
A
100
AcDbSymbolTable
70
1
0
ENDTAB
0
TABLE
2
BLOCK_RECORD
5
1
100
AcDbSymbolTable
70
1
0
BLOCK_RECORD
5
1F
100
AcDbSymbolTableRecord
100
AcDbBlockTableRecord
2
*MODEL_SPACE
0
BLOCK_RECORD
5
1B
100
AcDbSymbolTableRecord
100
AcDbBlockTableRecord
2
*PAPER_SPACE
0
ENDTAB
0
ENDSEC
0
SECTION
2
BLOCKS
0
BLOCK
5
20
100
AcDbEntity
100
AcDbBlockBegin
2
*MODEL_SPACE
0
ENDBLK
5
21
100
AcDbEntity
100
AcDbBlockEnd
0
BLOCK
5
1C
100
AcDbEntity
100
AcDbBlockBegin
2
*PAPER_SPACE
0
ENDBLK
5
1D
100
AcDbEntity
100
AcDbBlockEnd
0
ENDSEC
0
SECTION
2
ENTITIES
0
LWPOLYLINE
5
100
100
AcDbEntity
8
0
100
AcDbPolyline
90
10
70
1
43
0.0
10
-203.99999999999994
20
117.77945491468346
10
-204.00000000000247
20
0
10
-276.0000000000025
20
-1.1668669295663786e-12
10
-204.00000000000247
20
-72.000000000014893
10
-168.00000000003502
20
-51.215390309104748
10
-168.00000000003394
20
96.9948452238377
10
0
20
193.98969044771408
10
168.00000000003382
20
96.994845223837558
10
203.99999999999972
20
117.77945491468385
10
-2.2617553778647152e-13
20
235.55890982936717
0
LWPOLYLINE
5
101
100
AcDbEntity
8
0
100
AcDbPolyline
90
10
70
1
43
0.0
10
-203.99999999999972
20
-117.77945491468388
10
-168.00000000003621
20
-96.994845223835867
10
0
20
-193.9896904477142
10
168.00000000003644
20
-96.994845223836165
10
168.00000000004457
20
51.21539030910629
10
204
20
72.000000000008484
10
276
20
-4.9594602487888558e-12
10
204.00000000000003
20
0
10
204.00000000000003
20
-117.77945491468346
10
3.1974423109204508e-13
20
-235.5589098293672
0
LWPOLYLINE
5
102
100
AcDbEntity
8
0
100
AcDbPolyline
90
6
70
1
43
0.0
10
-131.99999999999972
20
-76.210235533030414
10
0
20
-152.42047106606111
10
131.99999999999991
20
-76.210235533030414
10
131.99999999999994
20
76.210235533030584
10
-2.6395552410463097e-13
20
152.4204710660612
10
-132
20
76.210235533030584
0
LWPOLYLINE
5
103
100
AcDbEntity
8
0
100
AcDbPolyline
90
5
70
1
43
0.0
10
-107.99999999999986
20
-62.353829072479257
10
-107.99999999999967
20
-38.353829072479257
10
108
20
-38.353829072480927
10
107.99999999999983
20
-62.353829072479442
10
4.7878367936959876e-14
20
-124.70765814495904
0
LWPOLYLINE
5
104
100
AcDbEntity
8
0
100
AcDbPolyline
90
4
70
1
43
0.0
10
-107.99999999999963
20
-26.353829072480121
10
-71.999999999999631
20
-26.353829072480742
10
-71.999999999999375
20
9.6461709275192611
10
-107.99999999999795
20
9.6461709275195453
0
LWPOLYLINE
5
105
100
AcDbEntity
8
0
100
AcDbPolyline
90
4
70
1
43
0.0
10
-53.999999999999503
20
-26.353829072480742
10
-17.99999999999951
20
-26.353829072480742
10
-17.99999999999951
20
9.6461709275192611
10
-53.999999999999503
20
9.6461709275192611
0
LWPOLYLINE
5
106
100
AcDbEntity
8
0
100
AcDbPolyline
90
4
70
1
43
0.0
10
4.929390229335695e-13
20
-26.353829072480742
10
36.000000000000483
20
-26.353829072480742
10
36.000000000000483
20
9.6461709275192611
10
4.929390229335695e-13
20
9.6461709275192611
0
LWPOLYLINE
5
107
100
AcDbEntity
8
0
100
AcDbPolyline
90
4
70
1
43
0.0
10
107.99999999999999
20
-26.353829072480742
10
54.000000000000483
20
-26.353829072480742
10
54.00000000000027
20
93.530743608719092
10
108
20
62.35382907247952
0
LWPOLYLINE
5
108
100
AcDbEntity
8
0
100
AcDbPolyline
90
4
70
1
43
0.0
10
-71.999999999999375
20
27.6461709275194
10
-107.99999999999767
20
27.6461709275194
10
-107.9999999999979
20
62.353829072480771
10
-71.999999999999375
20
83.13843876330651
0
LWPOLYLINE
5
109
100
AcDbEntity
8
0
100
AcDbPolyline
90
4
70
1
43
0.0
10
-53.999999999999503
20
27.6461709275194
10
-17.99999999999951
20
27.6461709275194
10
-17.99999999999951
20
63.646170927519385
10
-53.999999999999517
20
63.646170927519385
0
LWPOLYLINE
5
110
100
AcDbEntity
8
0
100
AcDbPolyline
90
4
70
1
43
0.0
10
4.929390229335695e-13
20
27.6461709275194
10
36.000000000000483
20
27.6461709275194
10
36.000000000000483
20
63.646170927519407
10
4.929390229335695e-13
20
63.646170927519385
0
LWPOLYLINE
5
111
100
AcDbEntity
8
0
100
AcDbPolyline
90
4
70
1
43
0.0
10
36.000000000000483
20
81.646170927519393
10
4.929390229335695e-13
20
81.646170927519393
10
4.929390229335695e-13
20
124.70765814495871
10
36.000000000000483
20
103.92304845413219
0
LWPOLYLINE
5
112
100
AcDbEntity
8
0
100
AcDbPolyline
90
4
70
1
43
0.0
10
-17.99999999999951
20
81.646170927519393
10
-53.999999999999524
20
81.646170927519393
10
-53.999999999999524
20
93.530743608719703
10
-17.99999999999952
20
114.31535329954627
0
LWPOLYLINE
5
113
100
AcDbEntity
8
0
100
AcDbPolyline
90
10
70
1
43
0.0
10
-168.00000000003615
20
-96.994845223835867
10
-203.99999999999972
20
-117.77945491468394
10
2.8421709430404007e-13
20
-235.55890982936722
10
204.00000000000003
20
-117.7794549146835
10
204.00000000000003
20
-7.7893247407700983e-12
10
276.00000000000165
20
-6.6280855468488851e-12
10
203.99999999999994
20
72.000000000008441
10
168.00000000004243
20
51.215390309105061
10
168.00000000004243
20
-96.994845223832655
10
-8.4376949871511897e-14
20
-193.9896904477142
0
LWPOLYLINE
5
114
100
AcDbEntity
8
0
100
AcDbPolyline
90
10
70
1
43
0.0
10
203.99999999999972
20
117.77945491468385
10
168.00000000003382
20
96.994845223837586
10
-3.2255087489829748e-10
20
193.98969044790033
10
-168.00000000003502
20
96.994845223731403
10
-168.00000000003502
20
-51.21539030910477
10
-204.00000000000247
20
-72.000000000014907
10
-276.00000000000244
20
-1.1746159600534156e-12
10
-204.00000000000173
20
-3.5527136788005009e-14
10
-204.00000000000173
20
117.77945491468238
10
-1.4210854715202004e-13
20
235.55890982936711
0
ENDSEC
0
SECTION
2
OBJECTS
0
DICTIONARY
5
C
100
AcDbDictionary
3
ACAD_GROUP
350
D
3
ACAD_MLINESTYLE
350
17
0
DICTIONARY
5
D
100
AcDbDictionary
0
DICTIONARY
5
1A
330
C
100
AcDbDictionary
0
DICTIONARY
5
17
100
AcDbDictionary
0
ENDSEC
0
EOF
